# Blender v2.61 (sub 0) OBJ File: ''
# www.blender.org
v -49.078506 -8.782401 -11.699636
v -49.078506 -8.782401 11.777428
v -49.078510 8.782398 -11.699636
v -49.078510 8.782400 11.777428
vt 0.000000 0.000000
vt 1.000000 0.000000
vt 1.000000 1.000000
vt 0.000000 1.000000
vn -1.000000 -0.000000 -0.000000
s off
f 1/1/1 2/2/1 4/3/1
f 1/1/1 4/3/1 3/4/1
v -43.239822 -8.428361 -17.064850
v 43.649803 -8.428361 -17.064850
v -43.239822 8.782402 -17.064846
v 43.649803 8.782402 -17.064846
vt 0.000000 0.000000
vt 1.000000 0.000000
vt 1.000000 1.000000
vt 0.000000 1.000000
vn 0.000000 -0.000000 1.000000
s off
f 5/5/2 6/6/2 8/7/2
f 5/5/2 8/7/2 7/8/2
v -43.239822 -8.428361 17.064844
v 43.649803 -8.428361 17.064844
v -43.239822 8.782402 17.064848
v 43.649803 8.782402 17.064848
vt 0.000000 0.000000
vt 1.000000 0.000000
vt 1.000000 1.000000
vt 0.000000 1.000000
s off
f 9/9/2 10/10/2 12/11/2
f 9/9/2 12/11/2 11/12/2
v 49.078518 -8.782401 -11.699636
v 49.078518 -8.782401 11.777428
v 49.078514 8.782398 -11.699636
v 49.078514 8.782400 11.777428
vt 0.000000 0.000000
vt 1.000000 0.000000
vt 1.000000 1.000000
vt 0.000000 1.000000
s off
f 13/13/1 14/14/1 16/15/1
f 13/13/1 16/15/1 15/16/1
