# Blender v2.58 (sub 0) OBJ File: ''
# www.blender.org
v -353.087219 0.000000 -165.179810
v -346.076599 0.000000 -165.179810
v -353.087219 0.000000 -185.849091
v -346.076599 0.000000 -185.849091
v -353.087219 -5.922774 -165.179810
v -346.076599 -5.922774 -165.179810
v -353.087219 -5.922774 -185.849091
v -346.076599 -5.922774 -185.849091
v -346.076599 -5.922774 -165.179810
v -353.087219 -5.922774 -165.179810
v -346.076599 -5.922774 -165.179810
v -346.076599 0.000000 -185.849091
v -346.076599 0.000000 -165.179810
v -346.076599 -5.922774 -185.849091
v -346.076599 -5.922774 -165.179810
v -346.076599 -5.922774 -185.849091
v -346.076599 0.000000 -165.179810
v -353.087219 0.000000 -185.849091
v -346.076599 0.000000 -185.849091
v -346.076599 0.000000 -185.849091
v -353.087219 0.000000 -165.179810
v -353.087219 0.000000 -185.849091
v -353.087219 -5.922774 -165.179810
v -353.087219 -5.922774 -185.849091
v -353.087219 -5.922774 -165.179810
v -353.087219 0.000000 -185.849091
vt 0.000000 1.000000
vt 0.000000 0.000000
vt 1.000000 1.000000
vt 1.000000 0.000000
vn 0.000000 1.000000 0.000000
vn 0.000000 -1.000000 0.000000
vn 0.000000 -0.000000 1.000000
vn 1.000000 -0.000000 0.000000
vn 0.000000 0.000000 -1.000000
vn -1.000000 0.000000 0.000000
usemtl (null)
s off
f 3/1/1 1/2/1 4/3/1
f 1/2/1 2/4/1 4/3/1
f 6/2/2 5/4/2 8/1/2
f 7/3/2 8/1/2 5/4/2
f 2/4/3 1/2/3 9/3/3
f 1/2/3 10/1/3 11/3/3
f 12/4/4 13/2/4 14/3/4
f 15/1/4 16/3/4 17/2/4
f 18/4/5 19/2/5 7/3/5
f 8/1/5 7/3/5 20/2/5
f 21/4/6 22/2/6 23/3/6
f 24/1/6 25/3/6 26/2/6
