# Blender v2.58 (sub 0) OBJ File: ''
# www.blender.org
v -147.735062 -6.764164 42.567429
v -130.173569 -6.764164 42.567429
v -138.858093 -6.764164 23.809683
v -124.543518 -6.764164 21.416521
v -134.755524 -6.764164 2.399645
v -125.525040 -6.764164 3.425285
v -147.714951 -6.764164 -25.296661
v -117.381607 -6.764164 -25.296661
v -147.735062 -0.610321 42.567429
v -130.173569 -0.610321 42.567429
v -138.858093 -0.610321 23.809683
v -124.543518 -0.610321 21.416521
v -134.755524 -0.610321 2.399645
v -125.525040 -0.610321 3.425285
v -147.714951 -0.610321 -25.296661
v -117.381607 -0.610321 -25.296661
v -147.735062 -6.764164 42.567429
v -130.173569 -6.764164 42.567429
v -130.173569 -0.610321 42.567429
v -130.173569 -0.610321 42.567429
v -147.735062 -0.610321 42.567429
v -147.735062 -6.764164 42.567429
v -124.543518 -6.764164 21.416521
v -124.543518 -0.610321 21.416521
v -124.543518 -0.610321 21.416521
v -130.173569 -0.610321 42.567429
v -124.543518 -6.764164 21.416521
v -125.525040 -6.764164 3.425285
v -125.525040 -0.610321 3.425285
v -125.525040 -0.610321 3.425285
v -124.543518 -0.610321 21.416521
v -124.543518 -6.764164 21.416521
v -125.525040 -6.764164 3.425285
v -117.381607 -6.764164 -25.296661
v -125.525040 -0.610321 3.425285
v -125.525040 -6.764164 3.425285
v -117.381607 -6.764164 -25.296661
v -147.714951 -6.764164 -25.296661
v -147.714951 -0.610321 -25.296661
v -147.714951 -0.610321 -25.296661
v -117.381607 -0.610321 -25.296661
v -117.381607 -6.764164 -25.296661
v -147.714951 -6.764164 -25.296661
v -134.755524 -6.764164 2.399645
v -134.755524 -0.610321 2.399645
v -134.755524 -0.610321 2.399645
v -147.714951 -6.764164 -25.296661
v -134.755524 -6.764164 2.399645
v -138.858093 -6.764164 23.809683
v -138.858093 -0.610321 23.809683
v -138.858093 -0.610321 23.809683
v -134.755524 -0.610321 2.399645
v -134.755524 -6.764164 2.399645
v -138.858093 -6.764164 23.809683
v -147.735062 -0.610321 42.567429
v -147.735062 -0.610321 42.567429
v -138.858093 -0.610321 23.809683
v -138.858093 -6.764164 23.809683
vt 1.000000 0.000000
vt 1.000000 0.333333
vt 0.000000 0.333333
vt 0.000000 0.000000
vt 1.000000 0.666667
vt 0.000000 0.666667
vt 1.000000 1.000000
vt 0.000000 1.000000
vt 0.333333 0.000000
vt 0.333333 1.000000
vt 0.666667 0.000000
vt 0.666667 1.000000
vn 0.000000 -1.000000 0.000000
vn 0.000000 1.000000 0.000000
vn 0.000000 0.000000 1.000000
vn 0.966351 0.000000 0.257228
vn 0.998515 0.000000 -0.054475
vn 0.962078 0.000000 0.272775
vn 0.000000 0.000000 -1.000000
vn -0.905751 0.000000 0.423811
vn -0.982132 -0.000000 -0.188195
vn -0.903892 -0.000000 -0.427760
usemtl (null)
s off
f 1/1/1 3/2/1 4/3/1
f 1/1/1 4/3/1 2/4/1
f 3/2/1 5/5/1 6/6/1
f 6/6/1 4/3/1 3/2/1
f 5/5/1 7/7/1 8/8/1
f 8/8/1 6/6/1 5/5/1
f 9/4/2 10/1/2 12/2/2
f 12/2/2 11/3/2 9/4/2
f 11/3/2 12/2/2 14/5/2
f 14/5/2 13/6/2 11/3/2
f 13/6/2 14/5/2 16/7/2
f 16/7/2 15/8/2 13/6/2
f 17/4/3 18/1/3 19/7/3
f 20/7/3 21/8/3 22/4/3
f 2/4/4 23/9/4 24/10/4
f 25/10/4 26/8/4 2/4/4
f 27/9/5 28/11/5 29/12/5
f 30/12/5 31/10/5 32/9/5
f 33/11/6 34/1/6 16/7/6
f 16/7/6 35/12/6 36/11/6
f 37/4/7 38/1/7 39/7/7
f 40/7/7 41/8/7 42/4/7
f 43/4/8 44/9/8 45/10/8
f 46/10/8 15/8/8 47/4/8
f 48/9/9 49/11/9 50/12/9
f 51/12/9 52/10/9 53/9/9
f 54/11/10 1/1/10 55/7/10
f 56/7/10 57/12/10 58/11/10
v -293.582062 -6.572828 -30.071932
v -293.582062 -6.572828 -21.221262
v -279.378723 -6.572828 -21.221251
v -281.332855 -6.572828 -30.071932
v -253.275391 -6.572830 -20.676975
v -253.275391 -6.572828 -30.071932
v -279.378693 -6.572821 4.044927
v -253.275375 -6.572828 2.815865
v -293.582062 -6.572821 4.044927
v -293.582062 -6.572828 22.310522
v -281.332855 -6.572828 22.310522
v -253.275391 -6.572828 22.310522
v -293.582062 -0.205611 -30.071932
v -293.582062 -0.205610 -21.221262
v -279.378723 -0.205609 -21.221251
v -279.378693 -0.205604 4.044927
v -293.582062 -0.205604 4.044927
v -293.582062 -0.205611 22.310528
v -281.332855 -0.205611 22.310528
v -253.275391 -0.205611 22.310528
v -253.275375 -0.205613 2.815865
v -253.275391 -0.205613 -20.676975
v -253.275391 -0.205611 -30.071932
v -281.332855 -0.205611 -30.071932
vt 0.000000 0.000000
vn -1.000000 -0.000000 -0.000000
vn -0.000001 0.000000 1.000000
vn -1.000000 0.000000 0.000001
vn 0.000000 -0.000001 1.000000
vn 1.000000 0.000000 0.000001
vn 1.000000 0.000000 -0.000001
vn 1.000000 0.000000 0.000000
usemtl (null)
s off
f 71/13/2 72/13/2 73/13/2
f 73/13/2 82/13/2 71/13/2
f 82/13/2 73/13/2 80/13/2
f 80/13/2 81/13/2 82/13/2
f 73/13/2 74/13/2 79/13/2
f 79/13/2 80/13/2 73/13/2
f 75/13/2 76/13/2 77/13/2
f 77/13/2 74/13/2 75/13/2
f 74/13/2 77/13/2 78/13/2
f 78/13/2 79/13/2 74/13/2
f 59/13/11 60/13/11 72/13/11
f 59/13/11 72/13/11 71/13/11
f 60/13/12 61/13/12 73/13/12
f 73/13/12 72/13/12 60/13/12
f 61/13/13 65/13/13 74/13/13
f 74/13/13 73/13/13 61/13/13
f 65/13/7 67/13/7 75/13/7
f 75/13/7 74/13/7 65/13/7
f 67/13/11 68/13/11 76/13/11
f 76/13/11 75/13/11 67/13/11
f 68/13/14 69/13/14 77/13/14
f 77/13/14 76/13/14 68/13/14
f 69/13/14 70/13/14 78/13/14
f 78/13/14 77/13/14 69/13/14
f 70/13/15 66/13/15 79/13/15
f 79/13/15 78/13/15 70/13/15
f 66/13/16 63/13/16 80/13/16
f 80/13/16 79/13/16 66/13/16
f 63/13/17 64/13/17 81/13/17
f 81/13/17 80/13/17 63/13/17
f 64/13/7 62/13/7 82/13/7
f 82/13/7 81/13/7 64/13/7
f 62/13/7 59/13/7 71/13/7
f 71/13/7 82/13/7 62/13/7
v -322.866333 -6.501995 -46.498337
v -311.414886 -6.501995 -51.695877
v -308.501343 -6.501995 -55.268303
v -322.384491 -6.501995 -77.611549
v -309.524933 -0.372236 -100.110352
v -322.520660 -6.501993 -100.523987
v -297.472260 -6.501995 -59.377991
v -297.357971 -6.501994 -100.908920
v -309.524933 -0.372237 -114.419800
v -323.214630 -6.501994 -115.451843
v -295.541901 -0.372237 -114.419800
v -310.444824 -6.501994 -120.555450
v -323.335510 -6.501995 -119.588867
v -294.212708 -6.501994 -120.557358
v -310.444824 -6.501994 -134.447586
v -324.045837 -6.501994 -134.447571
v -356.597717 -6.501994 -134.263229
v -352.468811 -6.501995 -122.303024
v -352.383881 -6.501994 -113.498283
v -356.010071 -6.501993 -101.051437
v -274.156097 -6.501993 -100.908920
v -274.156097 -0.372237 -114.419792
v -273.328796 -6.501994 -120.435066
v -252.763077 -6.501993 -100.908936
v -252.763077 -6.501994 -114.419807
v -252.763077 -6.501994 -121.616951
v -252.763077 -6.501994 -132.109283
v -273.266846 -6.501994 -134.660019
v -322.866333 -0.372235 -46.498337
v -311.414886 -0.372236 -51.695877
v -308.501343 -0.372236 -55.268311
v -297.472260 -0.372235 -59.377991
v -297.357971 -0.372236 -100.908920
v -274.156097 -0.372236 -100.908920
v -252.763077 -0.372236 -100.908936
v -252.763077 -0.372236 -114.419807
v -252.763077 -0.372236 -121.616951
v -252.763077 -0.372236 -132.109283
v -273.266846 -0.372236 -134.660019
v -273.328796 -0.372236 -120.435066
v -294.212708 -0.372236 -120.557358
v -310.444824 -0.372236 -120.555450
v -310.444824 -0.372236 -134.447586
v -324.045837 -0.372236 -134.447571
v -356.597717 -0.372235 -134.263229
v -352.468811 -0.372236 -122.303024
v -323.335510 -0.372236 -119.588867
v -323.214630 -0.372236 -115.451843
v -352.383881 -0.372236 -113.498283
v -356.010071 -0.372236 -101.051437
v -322.520660 -0.372236 -100.523987
v -322.384491 -0.372236 -77.611549
vt 1.000000 0.000000
vt 0.000000 0.000000
vt 0.000000 1.000000
vt 1.000000 1.000000
vn 0.413298 0.000000 0.910596
vn 0.774950 0.000001 0.632022
vn 0.774951 -0.000000 0.632021
vn 0.349170 0.000000 0.937060
vn 0.349169 0.000001 0.937060
vn 0.999996 0.000000 0.002752
vn 0.000001 0.000000 1.000000
vn 0.123452 0.000000 -0.992351
vn -0.999991 -0.000000 -0.004355
vn 0.005856 0.000000 -0.999983
vn -0.000118 -0.000000 -1.000000
vn -0.000001 -0.000000 -1.000000
vn -0.005663 -0.000000 -0.999984
vn -0.945258 0.000000 0.326322
vn -0.092762 0.000000 0.995688
vn -0.999573 0.000000 0.029207
vn -0.066824 -0.000000 -0.997765
vn -0.960086 -0.000000 -0.279706
vn -0.015748 0.000000 0.999876
vn -0.999982 0.000000 0.005943
vn -0.999880 -0.000000 -0.015485
usemtl (null)
s off
f 111/14/2 112/15/2 113/16/2
f 113/16/2 134/17/2 111/14/2
f 113/16/2 87/15/2 133/14/2
f 133/14/2 134/17/2 113/16/2
f 114/14/2 115/14/2 87/15/2
f 87/15/2 113/16/2 114/14/2
f 87/15/2 91/15/2 130/14/2
f 130/14/2 133/14/2 87/15/2
f 115/14/2 93/14/2 91/15/2
f 91/15/2 87/15/2 115/14/2
f 91/15/2 124/15/2 129/14/2
f 129/14/2 130/14/2 91/15/2
f 93/14/2 123/14/2 124/15/2
f 124/15/2 91/15/2 93/14/2
f 124/15/2 125/15/2 126/14/2
f 126/14/2 129/14/2 124/15/2
f 126/14/2 127/14/2 128/14/2
f 128/14/2 129/14/2 126/14/2
f 130/14/2 131/14/2 132/14/2
f 132/14/2 133/14/2 130/14/2
f 115/14/2 116/14/2 104/14/2
f 104/14/2 93/14/2 115/14/2
f 93/14/2 104/14/2 122/14/2
f 122/14/2 123/14/2 93/14/2
f 116/14/2 117/14/2 118/14/2
f 118/14/2 104/14/2 116/14/2
f 104/14/2 118/14/2 119/14/2
f 119/14/2 122/14/2 104/14/2
f 122/14/2 119/14/2 120/14/2
f 120/14/2 121/14/2 122/14/2
f 83/14/18 84/15/18 112/15/18
f 83/14/18 112/15/18 111/14/18
f 84/15/19 85/16/19 113/16/19
f 113/16/20 112/15/20 84/15/20
f 85/16/21 89/14/21 114/14/21
f 114/14/22 113/16/22 85/16/22
f 89/14/23 90/14/23 115/14/23
f 115/14/23 114/14/23 89/14/23
f 90/14/3 103/14/3 116/14/3
f 116/14/3 115/14/3 90/14/3
f 103/14/24 106/14/24 117/14/24
f 117/14/24 116/14/24 103/14/24
f 106/14/17 107/14/17 118/14/17
f 118/14/17 117/14/17 106/14/17
f 107/14/17 108/14/17 119/14/17
f 119/14/17 118/14/17 107/14/17
f 108/14/17 109/14/17 120/14/17
f 120/14/17 119/14/17 108/14/17
f 109/14/25 110/14/25 121/14/25
f 121/14/25 120/14/25 109/14/25
f 110/14/26 105/14/26 122/14/26
f 122/14/26 121/14/26 110/14/26
f 105/14/27 96/14/27 123/14/27
f 123/14/27 122/14/27 105/14/27
f 96/14/28 94/15/28 124/15/28
f 124/15/28 123/14/28 96/14/28
f 94/15/17 97/15/17 125/15/17
f 125/15/17 124/15/17 94/15/17
f 97/15/29 98/14/29 126/14/29
f 126/14/29 125/15/29 97/15/29
f 98/14/30 99/14/30 127/14/30
f 127/14/30 126/14/30 98/14/30
f 99/14/31 100/14/31 128/14/31
f 128/14/31 127/14/31 99/14/31
f 100/14/32 95/14/32 129/14/32
f 129/14/32 128/14/32 100/14/32
f 95/14/33 92/14/33 130/14/33
f 130/14/33 129/14/33 95/14/33
f 92/14/34 101/14/34 131/14/34
f 131/14/34 130/14/34 92/14/34
f 101/14/35 102/14/35 132/14/35
f 132/14/35 131/14/35 101/14/35
f 102/14/36 88/14/36 133/14/36
f 133/14/36 132/14/36 102/14/36
f 88/14/37 86/17/37 134/17/37
f 134/17/37 133/14/37 88/14/37
f 86/17/38 83/14/38 111/14/38
f 111/14/38 134/17/38 86/17/38
v -298.865417 -6.731156 -185.622421
v -331.795685 -6.731160 -185.622467
v -340.232849 -6.731161 -166.041473
v -304.425568 -6.731157 -166.041458
v -298.865417 -0.553419 -185.622421
v -331.795685 -0.553419 -185.622467
v -340.232880 -0.553420 -166.041473
v -304.425568 -0.553420 -166.041458
vt 1.000000 0.000000
vn 0.000001 0.000000 -1.000000
vn -0.918374 -0.000005 -0.395714
vn -0.918373 0.000000 -0.395715
vn 0.961969 0.000000 0.273158
usemtl (null)
s off
f 139/18/2 140/18/2 141/18/2
f 141/18/2 142/18/2 139/18/2
f 135/18/39 136/18/39 140/18/39
f 135/18/39 140/18/39 139/18/39
f 136/18/40 137/18/40 141/18/40
f 141/18/41 140/18/41 136/18/41
f 137/18/3 138/18/3 142/18/3
f 142/18/3 141/18/3 137/18/3
f 138/18/42 135/18/42 139/18/42
f 139/18/42 142/18/42 138/18/42
