# Blender v2.61 (sub 0) OBJ File: ''
# www.blender.org
v -49.133957 -3.765181 17.205421
v -12.610494 -3.765181 17.205421
v 12.942875 -3.765181 17.205421
v 49.466339 -3.765181 17.205421
v -49.133957 -3.765181 -17.205418
v -12.610494 -3.765181 -17.205418
v 12.942875 -3.765181 -17.205418
v 49.466339 -3.765181 -17.205418
v -49.133957 16.418102 17.205421
v -12.610494 16.418102 17.205420
v 12.942875 16.418102 17.205420
v 49.466339 16.418102 17.205421
v -49.133957 16.418102 -17.205418
v -12.610494 16.418102 -17.205420
v 12.942875 16.418102 -17.205420
v 49.466339 16.418102 -17.205418
v -12.610494 -3.765181 17.205421
v -12.610494 -3.765181 17.205421
v -12.610494 -3.765181 17.205421
v -12.610494 -3.765181 17.205421
v 12.942875 -3.765181 17.205421
v 12.942875 -3.765181 17.205421
v 12.942875 -3.765181 17.205421
v 12.942875 -3.765181 17.205421
v -12.610494 -3.765181 -17.205418
v -12.610494 -3.765181 -17.205418
v -12.610494 -3.765181 -17.205418
v -12.610494 -3.765181 -17.205418
v 12.942875 -3.765181 -17.205418
v 12.942875 -3.765181 -17.205418
v 12.942875 -3.765181 -17.205418
v 12.942875 -3.765181 -17.205418
v -12.610494 -16.418102 -17.205418
v -12.610494 -16.418102 17.205421
v -12.610494 -16.418102 17.205421
v 12.942875 -16.418102 17.205421
v 12.942875 -16.418102 17.205421
v 12.942875 -16.418102 -17.205418
v 12.942875 -16.418102 -17.205418
v -12.610494 -16.418102 -17.205418
v -49.133957 -3.765181 17.205421
v -49.133957 16.418102 17.205421
v -12.610494 16.418102 17.205420
v -12.610494 16.418102 17.205420
v -12.610494 -3.765181 17.205421
v -49.133957 -3.765181 17.205421
v -12.610494 16.418102 17.205420
v -12.610494 -3.765181 17.205421
v -12.610494 16.418102 17.205420
v 12.942875 16.418102 17.205420
v 12.942875 16.418102 17.205420
v 12.942875 16.418102 17.205420
v 12.942875 16.418102 17.205420
v 49.466339 16.418102 17.205421
v 49.466339 -3.765181 17.205421
v 12.942875 16.418102 17.205420
v 49.466339 -3.765181 17.205421
v 49.466339 -3.765181 17.205421
v 12.942875 -3.765181 17.205421
v 49.466339 -3.765181 17.205421
v 49.466339 16.418102 17.205421
v 49.466339 -3.765181 -17.205418
v 49.466339 -3.765181 17.205421
v 49.466339 -3.765181 -17.205418
v 49.466339 16.418102 -17.205418
v 12.942875 16.418102 -17.205420
v 12.942875 16.418102 -17.205420
v 12.942875 -3.765181 -17.205418
v 49.466339 -3.765181 -17.205418
v 12.942875 16.418102 -17.205420
v 12.942875 -3.765181 -17.205418
v 12.942875 16.418102 -17.205420
v -12.610494 16.418102 -17.205420
v -12.610494 16.418102 -17.205420
v -12.610494 16.418102 -17.205420
v -12.610494 16.418102 -17.205420
v -49.133957 16.418102 -17.205418
v -49.133957 -3.765181 -17.205418
v -12.610494 16.418102 -17.205420
v -49.133957 -3.765181 -17.205418
v -49.133957 -3.765181 -17.205418
v -12.610494 -3.765181 -17.205418
v -49.133957 -3.765181 -17.205418
v -49.133957 16.418102 17.205421
v -49.133957 16.418102 17.205421
v -49.133957 -3.765181 -17.205418
v -12.610494 -3.765181 17.205421
v -12.610494 -3.765181 17.205421
v -12.610494 -3.765181 17.205421
v -12.610494 -3.765181 17.205421
v 12.942875 -3.765181 17.205421
v 12.942875 -3.765181 17.205421
v 12.942875 -3.765181 17.205421
v 12.942875 -3.765181 17.205421
v -12.610494 -3.765181 -17.205418
v -12.610494 -3.765181 -17.205418
v -12.610494 -3.765181 -17.205418
v -12.610494 -3.765181 -17.205418
v 12.942875 -3.765181 -17.205418
v 12.942875 -3.765181 -17.205418
v 12.942875 -3.765181 -17.205418
v 12.942875 -3.765181 -17.205418
v -12.610494 -3.765181 17.205421
v 12.942875 -3.765181 17.205421
v 12.942875 -3.765181 17.205421
v 12.942875 -3.765181 -17.205418
v -12.610494 -3.765181 -17.205418
v -12.610494 -3.765181 -17.205418
vt 1.000000 0.000000
vt 0.666667 0.000000
vt 0.666667 1.000000
vt 1.000000 1.000000
vt 0.333333 0.000000
vt 0.333333 1.000000
vt -0.000000 0.000000
vt -0.000000 1.000000
vn 0.000000 0.000000 0.000000
vn 0.000000 1.000000 -0.000000
vn 0.000000 -1.000000 0.000000
vn -0.000000 -0.000000 -1.000000
vn -1.000000 0.000000 0.000000
vn -0.000000 0.000000 1.000000
vn 1.000000 0.000000 0.000000
s off
f 1/1/1 18/2/1 17/2/1
f 17/2/1 28/3/1 25/3/1
f 1/1/2 17/2/2 25/3/2
f 1/1/2 25/3/2 5/4/2
f 35/2/1 36/5/1 37/5/1
f 37/5/1 38/6/1 39/6/1
f 35/2/2 37/5/2 39/6/2
f 39/6/1 40/3/1 33/3/1
f 35/2/2 39/6/2 33/3/2
f 35/2/1 33/3/1 34/2/1
f 22/5/2 4/7/2 8/8/2
f 8/8/1 30/6/1 32/6/1
f 22/5/2 8/8/2 32/6/2
f 22/5/1 32/6/1 21/5/1
f 9/7/3 13/8/3 14/6/3
f 14/6/3 10/5/3 9/7/3
f 10/5/3 14/6/3 15/3/3
f 15/3/3 11/2/3 10/5/3
f 11/2/3 15/3/3 16/4/3
f 16/4/3 12/1/3 11/2/3
f 41/7/4 42/8/4 43/6/4
f 44/6/1 20/5/1 45/5/1
f 46/7/4 47/6/4 48/5/4
f 20/5/4 49/6/4 50/3/4
f 51/3/1 23/2/1 24/2/1
f 20/5/4 52/3/4 24/2/4
f 20/5/1 24/2/1 19/5/1
f 53/3/4 54/4/4 55/1/4
f 23/2/4 56/3/4 57/1/4
f 23/2/1 58/1/1 59/2/1
f 60/7/5 61/8/5 16/4/5
f 16/4/5 62/1/5 63/7/5
f 64/7/6 65/8/6 66/6/6
f 67/6/1 31/5/1 68/5/1
f 69/7/6 70/6/6 71/5/6
f 31/5/6 72/6/6 73/3/6
f 74/3/1 27/2/1 26/2/1
f 31/5/6 75/3/6 26/2/6
f 31/5/1 26/2/1 29/5/1
f 76/3/6 77/4/6 78/1/6
f 27/2/6 79/3/6 80/1/6
f 27/2/1 81/1/1 82/2/1
f 83/7/7 13/8/7 84/4/7
f 85/4/7 1/1/7 86/7/7
f 18/2/1 2/2/1 17/2/1
f 17/2/1 2/2/1 87/2/1
f 20/5/1 88/5/1 89/5/1
f 19/5/1 90/5/1 20/5/1
f 91/5/1 3/5/1 21/5/1
f 21/5/1 3/5/1 22/5/1
f 23/2/1 92/2/1 24/2/1
f 93/2/1 94/2/1 23/2/1
f 28/3/1 6/3/1 25/3/1
f 95/3/1 6/3/1 28/3/1
f 27/2/1 96/2/1 26/2/1
f 97/2/1 98/2/1 27/2/1
f 32/6/1 7/6/1 99/6/1
f 30/6/1 7/6/1 32/6/1
f 31/5/1 100/5/1 101/5/1
f 29/5/1 102/5/1 31/5/1
f 28/3/7 17/2/7 34/2/7
f 34/2/7 33/3/7 28/3/7
f 17/2/1 103/2/1 35/2/1
f 35/2/1 34/2/1 17/2/1
f 19/5/4 24/2/4 36/5/4
f 36/5/4 35/2/4 19/5/4
f 104/5/1 21/5/1 37/5/1
f 37/5/1 36/5/1 105/5/1
f 21/5/5 32/6/5 38/6/5
f 38/6/5 37/5/5 21/5/5
f 32/6/1 106/6/1 39/6/1
f 39/6/1 38/6/1 32/6/1
f 29/5/6 26/2/6 40/3/6
f 40/3/6 39/6/6 29/5/6
f 107/3/1 28/3/1 33/3/1
f 33/3/1 40/3/1 108/3/1
